<svg id="kity_svg_6" xmlns="http://www.w3.org/2000/svg" xmlns:xlink="http://www.w3.org/1999/xlink" version="1.1" width="407" height="256" style="background: rgb(251, 251, 251); visibility: visible;" viewBox="0 0 407 256"><defs id="kity_defs_7"><linearGradient id="kity_linearGradient_17" x1="0" y1="0" x2="0" y2="1"><stop id="kity_stop_18" offset="0" stop-color="rgb(255, 255, 255)"></stop><stop id="kity_stop_19" offset="1" stop-color="rgb(204, 204, 204)"></stop></linearGradient><marker id="kity_marker_2" orient="auto" refX="6" refY="0" viewBox="-7 -7 14 14" markerWidth="7" markerHeight="7" markerUnits="userSpaceOnUse"><path id="kity_path_3" fill="rgb(115, 191, 118)" stroke="none" d="M6,0A6,6,0,1,1,-6,0A6,6,0,1,1,6,0"></path></marker></defs><g id="kity_g_8"><g id="minder1" text-rendering="optimize-speed"><g id="minder_connect_group1"><path id="kity_path_31" fill="none" stroke="rgb(115, 191, 118)" stroke-width="1" d="M49.5,147.5A45,66,0,0,1,94.5,81.5"></path><path id="kity_path_33" fill="none" stroke="rgb(115, 191, 118)" stroke-width="1" d="M165.5,81.5C173.5,81.5,173.5,55.5,181.5,55.5"></path><path id="kity_path_35" fill="none" stroke="rgb(115, 191, 118)" stroke-width="1" d="M217.5,55.5C225.5,55.5,225.5,29.5,233.5,29.5"></path><path id="kity_path_37" fill="none" stroke="rgb(115, 191, 118)" stroke-width="1" d="M217.5,55.5C225.5,55.5,225.5,55.5,233.5,55.5"></path><path id="kity_path_39" fill="none" stroke="rgb(115, 191, 118)" stroke-width="1" d="M217.5,55.5C225.5,55.5,225.5,81.5,233.5,81.5"></path><path id="kity_path_41" fill="none" stroke="rgb(115, 191, 118)" stroke-width="1" d="M165.5,81.5C173.5,81.5,173.5,107.5,181.5,107.5"></path><path id="kity_path_43" fill="none" stroke="rgb(115, 191, 118)" stroke-width="1" d="M49.5,147.5A45,7,0,0,0,94.5,154.5"></path><path id="kity_path_45" fill="none" stroke="rgb(115, 191, 118)" stroke-width="1" d="M166.5,154.5C174.5,154.5,174.5,141.5,182.5,141.5"></path><path id="kity_path_47" fill="none" stroke="rgb(115, 191, 118)" stroke-width="1" d="M166.5,154.5C174.5,154.5,174.5,167.5,182.5,167.5"></path><path id="kity_path_49" fill="none" stroke="rgb(115, 191, 118)" stroke-width="1" d="M49.5,147.5A45,67,0,0,0,94.5,214.5"></path><path id="kity_path_51" fill="none" stroke="rgb(115, 191, 118)" stroke-width="1" d="M180.5,214.5C188.5,214.5,188.5,201.5,196.5,201.5"></path><path id="kity_path_53" fill="none" stroke="rgb(115, 191, 118)" stroke-width="1" d="M180.5,214.5C188.5,214.5,188.5,227.5,196.5,227.5"></path></g><g id="minder_node1"><path id="node_outline1" fill="rgb(115, 191, 118)" stroke="rgb(57, 96, 58)" d="M25.5,133.5h48a5,5,0,0,1,5,5v18a5,5,0,0,1,-5,5h-48a5,5,0,0,1,-5,-5v-18a5,5,0,0,1,5,-5z" stroke-width="3"></path><g id="node_text1" fill="white"><text id="kity_text_22" text-rendering="inherit" font-size="16" dy=".8em" y="137.09999990463257" x="32.5">对象</text></g></g><g id="kity_g_12"><path id="kity_path_13" fill="none" stroke="none" d="M32.5,147.5h0v0h0z"></path></g><g id="kity_g_14"><path id="kity_path_15" fill="none" stroke="none" d="M32.5,147.5h0v0h0z"></path><path id="kity_path_16" fill="none" stroke="none"></path></g><g id="minder_node2"><g id="node_expander6" style="cursor: pointer;"><path id="kity_path_106" fill="white" stroke="gray" d="M95.5,81.5A6,6,0,1,1,83.5,81.5A6,6,0,1,1,95.5,81.5"></path><path id="kity_path_107" fill="none" stroke="gray" d="M85,81.5L94,81.5"></path></g><path id="node_outline7" fill="rgb(238, 246, 238)" stroke="rgb(115, 191, 118)" d="M99.5,68.5h63a3,3,0,0,1,3,3v20a3,3,0,0,1,-3,3h-63a3,3,0,0,1,-3,-3v-20a3,3,0,0,1,3,-3z" stroke-width="1"></path><g id="node_text7" fill="black"><text id="kity_text_65" text-rendering="inherit" font-size="14" dy=".8em" y="72.40000009536743" x="116.5">常量</text></g></g><g id="minder_node3"><g id="node_expander4" style="cursor: pointer;"><path id="kity_path_100" fill="white" stroke="gray" d="M181.5,55.5A6,6,0,1,1,169.5,55.5A6,6,0,1,1,181.5,55.5"></path><path id="kity_path_101" fill="none" stroke="gray" d="M171,55.5L180,55.5"></path></g><path id="node_outline5" fill="none" stroke="none" d="M186.5,46.5h26a5,5,0,0,1,5,5v8a5,5,0,0,1,-5,5h-26a5,5,0,0,1,-5,-5v-8a5,5,0,0,1,5,-5z"></path><g id="node_text5" fill="black"><text id="kity_text_61" text-rendering="inherit" font-size="12" dy=".8em" y="47.700000047683716" x="186.5">原子</text></g></g><g id="minder_node4"><g id="node_expander1" display="none" style="cursor: pointer;"><path id="kity_path_91" fill="white" stroke="gray" d="M233.5,29.5A6,6,0,1,1,221.5,29.5A6,6,0,1,1,233.5,29.5"></path><path id="kity_path_92" fill="none" stroke="gray"></path></g><path id="node_outline2" fill="none" stroke="none" d="M238.5,20.5h62a5,5,0,0,1,5,5v8a5,5,0,0,1,-5,5h-62a5,5,0,0,1,-5,-5v-8a5,5,0,0,1,5,-5z"></path><g id="node_text2" fill="black"><text id="kity_text_55" text-rendering="inherit" font-size="12" dy=".8em" y="21.700000047683716" x="238.5">标识符原子</text></g></g><g id="minder_node5"><g id="node_expander2" display="none" style="cursor: pointer;"><path id="kity_path_94" fill="white" stroke="gray" d="M233.5,55.5A6,6,0,1,1,221.5,55.5A6,6,0,1,1,233.5,55.5"></path><path id="kity_path_95" fill="none" stroke="gray"></path></g><path id="node_outline3" fill="none" stroke="none" d="M238.5,46.5h62a5,5,0,0,1,5,5v8a5,5,0,0,1,-5,5h-62a5,5,0,0,1,-5,-5v-8a5,5,0,0,1,5,-5z"></path><g id="node_text3" fill="black"><text id="kity_text_57" text-rendering="inherit" font-size="12" dy=".8em" y="47.700000047683716" x="238.5">字符串原子</text></g></g><g id="minder_node6"><g id="node_expander3" display="none" style="cursor: pointer;"><path id="kity_path_97" fill="white" stroke="gray" d="M233.5,81.5A6,6,0,1,1,221.5,81.5A6,6,0,1,1,233.5,81.5"></path><path id="kity_path_98" fill="none" stroke="gray"></path></g><path id="node_outline4" fill="none" stroke="none" d="M238.5,72.5h50a5,5,0,0,1,5,5v8a5,5,0,0,1,-5,5h-50a5,5,0,0,1,-5,-5v-8a5,5,0,0,1,5,-5z"></path><g id="node_text4" fill="black"><text id="kity_text_59" text-rendering="inherit" font-size="12" dy=".8em" y="73.70000004768372" x="238.5">特殊原子</text></g></g><g id="minder_node7"><g id="node_expander5" display="none" style="cursor: pointer;"><path id="kity_path_103" fill="white" stroke="gray" d="M181.5,107.5A6,6,0,1,1,169.5,107.5A6,6,0,1,1,181.5,107.5"></path><path id="kity_path_104" fill="none" stroke="gray"></path></g><path id="node_outline6" fill="none" stroke="none" d="M186.5,98.5h14a5,5,0,0,1,5,5v8a5,5,0,0,1,-5,5h-14a5,5,0,0,1,-5,-5v-8a5,5,0,0,1,5,-5z"></path><g id="node_text6" fill="black"><text id="kity_text_63" text-rendering="inherit" font-size="12" dy=".8em" y="99.70000004768372" x="186.5">数</text></g></g><g id="minder_node8"><g id="node_expander9" style="cursor: pointer;"><path id="kity_path_115" fill="white" stroke="gray" d="M95.5,154.5A6,6,0,1,1,83.5,154.5A6,6,0,1,1,95.5,154.5"></path><path id="kity_path_116" fill="none" stroke="gray" d="M85,154.5L94,154.5"></path></g><path id="node_outline10" fill="rgb(238, 246, 238)" stroke="rgb(115, 191, 118)" d="M99.5,141.5h64a3,3,0,0,1,3,3v20a3,3,0,0,1,-3,3h-64a3,3,0,0,1,-3,-3v-20a3,3,0,0,1,3,-3z" stroke-width="1"></path><g id="node_text10" fill="black"><text id="kity_text_71" text-rendering="inherit" font-size="14" dy=".8em" y="145.40000009536743" x="116.5">变量</text></g></g><g id="minder_node9"><g id="node_expander7" display="none" style="cursor: pointer;"><path id="kity_path_109" fill="white" stroke="gray" d="M182.5,141.5A6,6,0,1,1,170.5,141.5A6,6,0,1,1,182.5,141.5"></path><path id="kity_path_110" fill="none" stroke="gray"></path></g><path id="node_outline8" fill="none" stroke="none" d="M187.5,132.5h49a5,5,0,0,1,5,5v8a5,5,0,0,1,-5,5h-49a5,5,0,0,1,-5,-5v-8a5,5,0,0,1,5,-5z"></path><g id="node_text8" fill="black"><text id="kity_text_67" text-rendering="inherit" font-size="12" dy=".8em" y="133.70000004768372" x="187.5">普通变量</text></g></g><g id="minder_node10"><g id="node_expander8" display="none" style="cursor: pointer;"><path id="kity_path_112" fill="white" stroke="gray" d="M182.5,167.5A6,6,0,1,1,170.5,167.5A6,6,0,1,1,182.5,167.5"></path><path id="kity_path_113" fill="none" stroke="gray"></path></g><path id="node_outline9" fill="none" stroke="none" d="M187.5,158.5h50a5,5,0,0,1,5,5v8a5,5,0,0,1,-5,5h-50a5,5,0,0,1,-5,-5v-8a5,5,0,0,1,5,-5z"></path><g id="node_text9" fill="black"><text id="kity_text_69" text-rendering="inherit" font-size="12" dy=".8em" y="159.70000004768372" x="187.5">特殊变量</text></g></g><g id="minder_node11"><g id="node_expander12" style="cursor: pointer;"><path id="kity_path_124" fill="white" stroke="gray" d="M95.5,214.5A6,6,0,1,1,83.5,214.5A6,6,0,1,1,95.5,214.5"></path><path id="kity_path_125" fill="none" stroke="gray" d="M85,214.5L94,214.5"></path></g><path id="node_outline13" fill="rgb(238, 246, 238)" stroke="rgb(115, 191, 118)" d="M99.5,201.5h78a3,3,0,0,1,3,3v20a3,3,0,0,1,-3,3h-78a3,3,0,0,1,-3,-3v-20a3,3,0,0,1,3,-3z" stroke-width="1"></path><g id="node_text13" fill="black"><text id="kity_text_77" text-rendering="inherit" font-size="14" dy=".8em" y="205.40000009536743" x="116.5">复合项</text></g></g><g id="minder_node12"><g id="node_expander10" display="none" style="cursor: pointer;"><path id="kity_path_118" fill="white" stroke="gray" d="M196.5,201.5A6,6,0,1,1,184.5,201.5A6,6,0,1,1,196.5,201.5"></path><path id="kity_path_119" fill="none" stroke="gray"></path></g><path id="node_outline11" fill="none" stroke="none" d="M201.5,192.5h120a5,5,0,0,1,5,5v8a5,5,0,0,1,-5,5h-120a5,5,0,0,1,-5,-5v-8a5,5,0,0,1,5,-5z"></path><g id="node_text11" fill="black"><text id="kity_text_73" text-rendering="inherit" font-size="12" dy=".8em" y="193.70000004768372" x="201.5">&lt;原子&gt;(&lt;项&gt;[,&lt;项&gt;])</text></g></g><g id="minder_node13"><g id="node_expander11" display="none" style="cursor: pointer;"><path id="kity_path_121" fill="white" stroke="gray" d="M196.5,227.5A6,6,0,1,1,184.5,227.5A6,6,0,1,1,196.5,227.5"></path><path id="kity_path_122" fill="none" stroke="gray"></path></g><path id="node_outline12" fill="none" stroke="none" d="M201.5,218.5h181a5,5,0,0,1,5,5v8a5,5,0,0,1,-5,5h-181a5,5,0,0,1,-5,-5v-8a5,5,0,0,1,5,-5z"></path><g id="node_text12" fill="black"><text id="kity_text_75" text-rendering="inherit" font-size="12" dy=".8em" y="219.70000004768372" x="201.5">&lt;项&gt;&lt;原子&gt;&lt;项&gt;[&lt;原子&gt;&lt;项&gt;]</text></g></g></g></g></svg>